<svg xmlns="http://www.w3.org/2000/svg" role="img" viewBox="2.55 -2.95 699.40 515.40"><title>kubecon-eu-virtual-logo-01.svg</title><defs><clipPath id="clip-path"><path d="M475.396 278.144h213.501v1.092H475.396z" class="cls-1"/></clipPath><clipPath id="clip-path-2"><path d="M16.195 278.144h208.807v1.092H16.195z" class="cls-1"/></clipPath><clipPath id="clip-path-3"><path d="M271.719 11.595h1.092v222.124h-1.092z" class="cls-1"/></clipPath><style>.cls-1{fill:none}.cls-2,.cls-5{fill:#fff}.cls-5{fill-rule:evenodd}</style></defs><path id="SVGID" d="M475.3959 278.14351h213.50079v1.09149H475.3959z" class="cls-2"/><path d="M475.396 278.144h213.501v1.092H475.396z" class="cls-2"/><g clip-path="url(#clip-path)"><path d="M475.3959 278.14351h213.50079v1.09149H475.3959z" class="cls-2"/></g><path id="SVGID-2" d="M16.19458 278.14351h208.80725v1.09149H16.19458z" class="cls-2"/><path d="M16.195 278.144h208.807v1.092H16.195z" class="cls-2"/><g clip-path="url(#clip-path-2)"><path d="M16.19458 278.14351h208.80725v1.09149H16.19458z" class="cls-2"/></g><path d="M205.02708 201.40985c1.20068-.32745 2.61963-.65491 4.47523-.98235a32.31678 32.31678 0 0 1 5.67588-.4366 13.13212 13.13212 0 0 1 5.021.764 7.67383 7.67383 0 0 1 3.16539 2.2922 8.63771 8.63771 0 0 1 1.63728 3.49285 18.60428 18.60428 0 0 1 .54576 4.47523V224.55h-6.76742v-12.66157a9.11334 9.11334 0 0 0-.87321-4.58437q-.81864-1.30983-3.27455-1.30982a7.73313 7.73313 0 0 0-1.52812.10916c-.54576 0-.98236.10916-1.419.10916v18.44663h-6.65826v-23.24934zm-12.44329 11.13348a9.069 9.069 0 0 0-1.20068-4.91183 4.5878 4.5878 0 0 0-7.204 0 8.19663 8.19663 0 0 0-1.30981 4.91183 8.79655 8.79655 0 0 0 1.30981 5.021 4.4239 4.4239 0 0 0 7.204 0 9.75788 9.75788 0 0 0 1.20068-5.021m6.87656 0a15.34091 15.34091 0 0 1-.76406 5.13013 11.68169 11.68169 0 0 1-2.40133 4.03861 10.92312 10.92312 0 0 1-8.51384 3.49285 13.43319 13.43319 0 0 1-4.80267-.87322 10.956 10.956 0 0 1-3.71115-2.61963 11.35475 11.35475 0 0 1-2.40134-4.03861 15.50642 15.50642 0 0 1 0-10.26026 11.884 11.884 0 0 1 2.40134-3.92947 10.64859 10.64859 0 0 1 3.71115-2.51049A11.236 11.236 0 0 1 187.672 200.1a12.83441 12.83441 0 0 1 4.69353.87322 12.37775 12.37775 0 0 1 3.71115 2.51049 11.88342 11.88342 0 0 1 2.40133 3.92947 11.34482 11.34482 0 0 1 .98236 5.13013m-36.78413 12.55245c-5.13013 0-9.0596-1.419-11.67923-4.25691-2.72879-2.838-4.03861-6.87657-4.03861-12.11585a19.93058 19.93058 0 0 1 1.20067-6.98571 14.10749 14.10749 0 0 1 8.51384-8.29553 17.7425 17.7425 0 0 1 6.44-1.09152 18.39982 18.39982 0 0 1 3.602.32746c1.09152.2183 2.07388.4366 2.83795.65491a21.48373 21.48373 0 0 1 2.07388.76406 3.90825 3.90825 0 0 1 1.20067.65492l-2.07387 5.67589a13.66772 13.66772 0 0 0-3.38371-1.30982 17.68148 17.68148 0 0 0-4.36607-.54576 10.14069 10.14069 0 0 0-3.1654.54576 6.52978 6.52978 0 0 0-2.72879 1.74643 10.53449 10.53449 0 0 0-1.96473 3.05625 14.37733 14.37733 0 0 0-.76406 4.58437 15.807 15.807 0 0 0 .4366 4.03861 10.07225 10.07225 0 0 0 1.52811 3.27456 8.21877 8.21877 0 0 0 2.838 2.183 9.71093 9.71093 0 0 0 4.14777.76406 19.75294 19.75294 0 0 0 2.72879-.2183 11.00738 11.00738 0 0 0 2.183-.4366 14.27514 14.27514 0 0 0 1.63728-.54576 6.67734 6.67734 0 0 1 1.30982-.54576l1.96473 5.67589a13.30907 13.30907 0 0 1-4.25691 1.63727 21.08812 21.08812 0 0 1-6.22165.76406M135.82493 210.142a4.37968 4.37968 0 0 0-.32746-1.63728 5.88036 5.88036 0 0 0-.76406-1.419 4.36781 4.36781 0 0 0-1.30981-1.09152 5.21369 5.21369 0 0 0-1.96474-.4366 3.73825 3.73825 0 0 0-1.96473.4366 2.97982 2.97982 0 0 0-1.30982.98236 5.10637 5.10637 0 0 0-.87322 1.52812 8.17684 8.17684 0 0 0-.43661 1.74643h8.95044zm-15.93615 2.61963a14.886 14.886 0 0 1 .98237-5.56674 10.34574 10.34574 0 0 1 2.61964-3.92947 10.96359 10.96359 0 0 1 3.602-2.40133 11.70447 11.70447 0 0 1 4.25692-.76406 10.61426 10.61426 0 0 1 8.07723 3.05625q2.9471 3.11083 2.94709 9.16874v1.30982c0 .4366-.10915.87321-.10915 1.20067H126.8745a4.05741 4.05741 0 0 0 1.96474 3.27455 8.40239 8.40239 0 0 0 4.58436 1.20068 19.2205 19.2205 0 0 0 3.602-.32746 13.69086 13.69086 0 0 0 2.9471-.87322l.87322 5.45759a9.74841 9.74841 0 0 1-1.419.54576 11.59317 11.59317 0 0 1-2.07388.4366c-.76406.10916-1.52813.2183-2.40134.32746a20.17721 20.17721 0 0 1-2.51049.10916 14.1119 14.1119 0 0 1-5.56674-.98236 10.34574 10.34574 0 0 1-3.92946-2.61964 8.92657 8.92657 0 0 1-2.29218-3.92947 12.45911 12.45911 0 0 1-.76406-4.69353m-4.47522-.2183a15.31789 15.31789 0 0 1-.87322 5.13013 11.88375 11.88375 0 0 1-2.40133 3.92947 10.55782 10.55782 0 0 1-3.92947 2.51049 15.49329 15.49329 0 0 1-5.23928.87322 22.84524 22.84524 0 0 1-2.61964-.10916L97.731 224.55a20.14672 20.14672 0 0 1-2.51049-.43661c-.76406-.2183-1.52813-.32745-2.07389-.54575v-33.4004l6.76741-1.09152v11.89753a15.4574 15.4574 0 0 1 2.40133-.764 10.19984 10.19984 0 0 1 2.61965-.2183 11.27572 11.27572 0 0 1 4.47522.87321 8.25256 8.25256 0 0 1 3.27455 2.5105 11.081 11.081 0 0 1 1.96473 3.92946 16.45077 16.45077 0 0 1 .76406 5.23929m-6.87656-.10916c0-4.36607-1.63728-6.5491-4.80268-6.5491a13.37576 13.37576 0 0 0-2.07388.2183 12.7 12.7 0 0 0-1.63728.65492v12.33415a4.49762 4.49762 0 0 0 1.30982.10915c.54576 0 1.09151.10916 1.63727.10916a4.85947 4.85947 0 0 0 4.14777-1.85557 8.05205 8.05205 0 0 0 1.419-5.021m-22.04869 11.24259c-1.20066.32746-2.61964.65492-4.47522.98236a32.3187 32.3187 0 0 1-5.67588.4366 13.13185 13.13185 0 0 1-5.021-.76406 7.674 7.674 0 0 1-3.1654-2.29219 9.37931 9.37931 0 0 1-1.63728-3.49285 18.60591 18.60591 0 0 1-.54576-4.47523V200.755h6.76741v12.44329a9.90764 9.90764 0 0 0 .87321 4.69353c.54576.98236 1.63728 1.419 3.27456 1.419a7.73167 7.73167 0 0 0 1.52812-.10916c.54576 0 .98237-.10916 1.419-.10916v-18.44669h6.7674v23.031zm-31.21739.87322c-.65491-.98236-1.419-2.183-2.29218-3.38371a40.88982 40.88982 0 0 0-2.83795-3.602c-.98236-1.20068-2.07388-2.2922-3.1654-3.49285a39.87512 39.87512 0 0 0-3.27455-2.9471v13.31651H36.606v-31.4357h7.09486v11.89753c1.85558-1.96473 3.71116-3.92947 5.56674-6.1125 1.85558-2.07388 3.602-4.03861 5.23928-5.78505h8.40468c-2.183 2.51049-4.25692 5.021-6.43995 7.31316-2.183 2.40134-4.47522 4.69353-6.87656 7.09487a58.99083 58.99083 0 0 1 7.31317 7.42232 96.65077 96.65077 0 0 1 6.7674 9.49619H55.271z" class="cls-2"/><path d="M112.0298 85.59987l-3.92946.87322c0-.54576-.10915-1.09152-.10915-1.63728a22.603 22.603 0 0 1 3.27455-11.78839l7.64062 6.76741a1.50657 1.50657 0 0 0 .43661.32745 12.44762 12.44762 0 0 0-.87322 3.602c-.2183.10915-.54575.10915-.76405.2183zm14.84463-23.14017v10.69687a9.46291 9.46291 0 0 0-2.94709 1.52813c-.32746-.2183-.65491-.54576-.98237-.76406l-7.74977-5.45759a21.915 21.915 0 0 1 11.67923-6.00334M73.82669 87.128c3.71117-16.26361 6.87657-30.01673 10.58772-46.28034 1.63728-7.42232 2.72879-9.2779 9.2779-13.09821 9.16874-5.23928 16.0453-9.16874 25.869-14.84463 6.1125-3.49286 7.31316-3.27455 7.31316 4.25691v37.7665a29.8029 29.8029 0 0 0-17.90088 9.05959l-3.27459-2.29218a1.57764 1.57764 0 0 1-.76406-1.09152 5.3164 5.3164 0 0 0-1.74643-2.61964 3.57128 3.57128 0 0 0-4.47522 5.56674 3.782 3.782 0 0 0 1.74643.87321c.43661.10915.87322.10915 1.30982.2183a2.69706 2.69706 0 0 1 .98236.43661l3.05626 2.7288A29.884 29.884 0 0 0 100.678 84.6175c0 1.09152.10915 2.183.2183 3.27456l-6.65826 1.419a6.71347 6.71347 0 0 0-1.419.10915l-.98237.32746c-4.36607.87322-8.73214 1.85558-13.20736 2.83794-6.00334 1.52813-6.11249.32746-4.80268-5.45758m60.79752-13.97143V62.4597a22.95234 22.95234 0 0 1 11.67924 5.89419l-8.40468 6.00335c-.10915.10915-.2183.2183-.32746.2183a18.48938 18.48938 0 0 0-2.9471-1.419m18.7741 12.6616l-10.47857-2.40133a10.33526 10.33526 0 0 0-.87322-3.27455c.10915-.10915.2183-.2183.32746-.2183l7.74978-6.87657a22.80631 22.80631 0 0 1 3.38377 11.89761 2.1276 2.1276 0 0 0-.10916.87322m-13.644-57.74127c5.67589 2.7288 9.7145 4.69353 15.3904 7.42232 7.85892 3.82031 15.71784 7.64062 23.68592 11.35178 1.96474 8.51383 3.92947 17.02767 5.78505 25.5415 1.20068 5.13013 1.74643 7.85893 2.94709 12.87991 1.85558 7.96808 1.63728 8.623-6.5491 6.76741L160.8206 87.4555a21.03089 21.03089 0 0 0 .10916-2.61965 29.25954 29.25954 0 0 0-5.23929-16.91851l2.838-2.61965a2.42294 2.42294 0 0 1 1.20068-.54576 5.71292 5.71292 0 0 0 2.94709-1.09151 3.57128 3.57128 0 1 0-4.47523-5.56674 4.44406 4.44406 0 0 0-1.30981 1.52813c-.2183.4366-.32746.76406-.54576 1.20066a1.69748 1.69748 0 0 1-.65492.87322l-3.27452 2.29213a29.80287 29.80287 0 0 0-17.90089-9.05959v-23.031c.10915-5.45759.65491-6.1125 5.23929-3.82031m-6.87656 68.76558a12.08916 12.08916 0 0 1-2.07389.2183 11.863 11.863 0 0 1-1.96473-.10915l-.32746.65491-4.80268 8.84129a22.66514 22.66514 0 0 0 7.204 1.20067 23.87065 23.87065 0 0 0 7.31317-1.20067l-4.80268-8.73214a4.85989 4.85989 0 0 1-.54576-.87321m8.40468-5.8942l10.47851 2.40133a22.64114 22.64114 0 0 1-8.51384 10.36941l-4.14777-10.042a10.45538 10.45538 0 0 0 2.183-2.72879m-31.4357 2.40134l10.47857-2.40134a14.50661 14.50661 0 0 0 2.29218 2.83794l-.32746.65491-3.82031 9.2779a21.59683 21.59683 0 0 1-8.623-10.36941m85.6841 18.33749c-5.021 6.22164-7.31316 9.16875-12.33415 15.39039-5.67588 7.09486-10.26025 12.8799-15.93616 19.97476-4.03861 5.13013-6.9857 5.23929-13.644 5.23929h-45.84363c-8.73214 0-9.38705 0-14.73548-6.7674-5.34844-6.65827-9.4962-11.89754-14.73549-18.5558-4.14776-5.23928-5.23928-6.5491-9.387-11.78839-6.44-8.07723-7.53147-11.02432 2.51049-13.20736l30.99908-6.98571a30.65139 30.65139 0 0 0 12.98906 15.71785l-1.419 3.27455a1.92611 1.92611 0 0 1-.87322.98237 4.95023 4.95023 0 0 0-2.183 2.29219 3.58793 3.58793 0 0 0 6.43562 3.17422l.00434-.00882a5.82914 5.82914 0 0 0 .54576-1.96474 5.31418 5.31418 0 0 0-.10915-1.30981 1.96793 1.96793 0 0 1 .2183-1.09152l1.74642-3.1654a30.5337 30.5337 0 0 0 10.806 1.96473 28.94719 28.94719 0 0 0 10.91517-2.07388l1.74643 3.1654a1.7863 1.7863 0 0 1 .2183 1.30982 4.911 4.911 0 0 0 .4366 3.05625 3.58793 3.58793 0 1 0 6.44625-3.15259l-.0063-.01281a4.559 4.559 0 0 0-1.20068-1.63728 6.62546 6.62546 0 0 0-1.09151-.76406 1.35566 1.35566 0 0 1-.65492-.87322l-1.419-3.49285a29.93749 29.93749 0 0 0 12.87991-15.71785l34.1645 7.74977c6.87656 1.96474 6.43994 4.36607 2.51049 9.2779" class="cls-5"/><path d="M134.62421 73.15657V62.4597a22.95242 22.95242 0 0 1 11.67924 5.89419l-8.40468 6.00335c-.10915.10915-.2183.2183-.32746.2183a18.48938 18.48938 0 0 0-2.9471-1.419m18.7741 12.6616l-10.47857-2.40133a10.33526 10.33526 0 0 0-.87322-3.27455c.10915-.10915.2183-.2183.32746-.2183l7.74978-6.87657a22.80631 22.80631 0 0 1 3.38371 11.89761 2.1276 2.1276 0 0 0-.10916.87322m-13.644-57.74127c5.67589 2.7288 9.7145 4.69353 15.3904 7.42232 7.85892 3.82031 15.71784 7.64062 23.68592 11.35178 1.96474 8.51383 3.92947 17.02767 5.78505 25.5415 1.20068 5.13013 1.74643 7.85893 2.94709 12.87991 1.85558 7.96808 1.63728 8.623-6.5491 6.76741L160.8206 87.4555a21.03089 21.03089 0 0 0 .10916-2.61965 29.25954 29.25954 0 0 0-5.23929-16.91851l2.838-2.61965a2.42294 2.42294 0 0 1 1.20068-.54576 5.71292 5.71292 0 0 0 2.94709-1.09151 3.57128 3.57128 0 1 0-4.47523-5.56674 4.44406 4.44406 0 0 0-1.30981 1.52813c-.2183.4366-.32746.76406-.54576 1.20066a1.69748 1.69748 0 0 1-.65492.87322l-3.27452 2.29213a29.80287 29.80287 0 0 0-17.90089-9.05959v-23.031c.10915-5.45759.65491-6.1125 5.23929-3.82031m1.52813 62.87139l10.47857 2.40133a22.641 22.641 0 0 1-8.51384 10.36942l-4.14777-10.042a10.45541 10.45541 0 0 0 2.183-2.72879m-10.47857 16.48191V96.95164a13.37235 13.37235 0 0 0 2.07389-.2183 2.73579 2.73579 0 0 0 .4366.76406l4.80268 8.73214a21.40434 21.40434 0 0 1-7.31316 1.20067m64.727 4.25692c-5.021 6.22164-7.31316 9.16874-12.33415 15.39039-5.67589 7.09486-10.26026 12.87991-15.93616 19.97477-4.03861 5.13013-6.9857 5.23929-13.644 5.23929h-22.81271v-37.32989a28.947 28.947 0 0 0 10.91517-2.07389l1.74643 3.16541a1.78637 1.78637 0 0 1 .2183 1.30981 4.911 4.911 0 0 0 .4366 3.05625 3.58793 3.58793 0 0 0 6.44-3.1654 4.559 4.559 0 0 0-1.20068-1.63727 6.62452 6.62452 0 0 0-1.09152-.76406 1.35565 1.35565 0 0 1-.65491-.87322l-1.419-3.49285a29.9374 29.9374 0 0 0 12.87991-15.71785l34.16449 7.74977c6.65827 1.85557 6.22165 4.25692 2.2922 9.16875" class="cls-5"/><path d="M448.76288 110.37731h-18.11919v42.35087h42.35085V134.609h-24.23169zm90.70509.2183V134.609h-24.01338l-.10915-.10915v18.22834h42.35085V110.3773h-18.33747zm-108.82425-42.46h18.22835l-.10916-.2183V43.9039h24.12254l.10916.10915V25.78472h-42.35086zm84.70175-42.35087V43.9039H539.468v24.23169h18.22835V25.78472z" class="cls-2"/><path fill="#fff" d="M513.05324 68.13559l-24.23169-24.23168h26.52385V25.78472h-42.35086v18.22834l24.01338 24.12253zm-21.83034 42.24173h-16.04532l20.08391 20.08392 4.14775 4.14777h-26.41473v18.11918h42.35086v-18.22833l-12.11585-12.00669zM539.468 68.1356v26.41472l-4.14775-4.14777-19.97478-20.08392v16.0453l12.00669 12.00669 12.00669 12.00669h18.33748V68.13559zM472.99458 92.149L448.872 68.1356h-18.22831v42.24172h18.11919V83.96259l24.2317 24.23169z" opacity=".8" style="isolation:isolate"/><path d="M342.12166 198.89936l-4.58439 5.45759a10.73045 10.73045 0 0 0-7.85893-4.03861 8.7658 8.7658 0 0 0-8.737 8.79443q.00045.1326.0049.26516c0 5.23929 3.71115 9.16874 8.73214 9.16874a11.54254 11.54254 0 0 0 7.85893-3.71115l4.69351 4.91183a19.11078 19.11078 0 0 1-12.87989 5.67589c-9.387 0-16.37276-6.87657-16.37276-16.04531 0-9.05959 7.204-15.827 16.70021-15.827a19.01322 19.01322 0 0 1 12.44329 5.34843zm3.82031 26.30558V192.132h7.74978v33.073zm38.31226-12.11585c0 7.42232-5.23927 12.33415-13.0982 12.33415s-13.20737-4.91183-13.20737-12.33415 5.23927-12.225 13.20737-12.225c7.8589 0 13.09817 4.91182 13.09817 12.225zm-18.44663.10916c0 3.71115 2.183 6.22164 5.34843 6.22164s5.34842-2.51049 5.34842-6.22164-2.183-6.22165-5.34842-6.22165-5.34846 2.51048-5.34846 6.22165zm46.062 12.00669h-7.74978v-4.03862a8.50993 8.50993 0 0 1-7.85894 4.25692c-5.23927 0-8.623-3.602-8.623-9.16874v-15.17209h7.74978v12.989c0 2.838 1.52812 4.58437 4.03863 4.58437 2.94711 0 4.69351-2.40133 4.69351-5.67589v-11.89748h7.74978zm30.34417 0H434.464v-3.1654a8.89786 8.89786 0 0 1-7.204 3.49285c-6.76742 0-11.24262-5.021-11.24262-12.44329 0-7.31316 4.36607-12.225 11.02434-12.225a8.87136 8.87136 0 0 1 7.4223 3.49285V192.132h7.74978v33.073zm-7.64062-12.00669c0-3.71116-2.183-6.22165-5.34843-6.22165s-5.34843 2.51049-5.34843 6.22165 2.183 6.3308 5.34843 6.3308 5.3484-2.61965 5.3484-6.3308zm35.91092 12.00669l-14.408-19.21072v19.21072h-7.42231v-31.21741h6.98571l14.408 19.31986v-19.31986h7.4223v31.21741zm34.492-15.71785v15.71785h-7.53146v-2.7288c-1.52812 2.07388-4.14775 3.1654-7.31318 3.1654-5.13015 0-8.29554-3.1654-8.29554-7.53147 0-4.58437 3.27455-7.204 9.2779-7.31316h6.33079v-.32746c0-2.40133-1.52812-3.82031-4.69352-3.82031a18.37771 18.37771 0 0 0-7.204 1.96474l-2.183-5.13013a25.019 25.019 0 0 1 11.13349-2.7288c6.65826 0 10.47857 3.27454 10.47857 8.73213zm-7.53146 7.53147v-2.183h-4.91183c-2.29219 0-3.49287.76406-3.49287 2.61964 0 1.74643 1.20068 2.838 3.38371 2.838 2.51046-.00009 4.47518-1.30991 5.02094-3.27464zm28.37945 6.87656a13.73551 13.73551 0 0 1-6.44 1.63727c-4.69351 0-7.96806-2.61963-7.96806-7.64062v-10.58771h-3.38371v-5.021h3.38371v-6.65826h7.64062v6.65826h6.33079v5.13013h-6.33079v9.38706c0 1.85557.76408 2.72879 2.183 2.61963a9.04083 9.04083 0 0 0 2.94711-.76406l1.63727 5.23929zm11.78837-29.68927a3.9889 3.9889 0 0 1-3.8265 4.14494q-.106.00425-.21213.00283a4.09355 4.09355 0 0 1 0-8.18638 3.83862 3.83862 0 0 1 4.03863 4.03859zm-7.85894 30.99909v-24.01339h7.64063v24.01339zm19.53816 0l-9.05965-24.01339h7.96806l5.13014 17.02768 5.23927-17.02768h7.64063l-9.05959 24.01339zm42.46005-9.93282h-16.91857a5.61565 5.61565 0 0 0 5.6759 4.47523 8.57589 8.57589 0 0 0 5.785-2.40134l4.03863 3.92947a13.62914 13.62914 0 0 1-10.47854 4.25691c-7.85894 0-12.77077-4.91182-12.77077-12.225 0-7.42232 5.13015-12.33415 12.55245-12.33415 8.4047-.10915 12.66158 5.45759 12.11582 14.29889zm-7.42231-4.14777a4.52931 4.52931 0 0 0-4.69351-4.91183c-2.72879 0-4.47519 1.96474-5.021 4.91183h9.71446zm38.85794-12.22499L618.603 204.357a10.73038 10.73038 0 0 0-7.85894-4.03861 8.76576 8.76576 0 0 0-8.737 8.79443q.00039.1326.00486.26516c0 5.23929 3.71118 9.16874 8.73214 9.16874a11.5424 11.5424 0 0 0 7.85894-3.71115l4.69351 4.91183a19.1106 19.1106 0 0 1-12.87989 5.67589c-9.387 0-16.37276-6.87657-16.37276-16.04531 0-9.05959 7.204-15.827 16.7002-15.827a18.78556 18.78556 0 0 1 12.44327 5.34838zm27.06967 14.18973c0 7.42232-5.23927 12.33415-13.09821 12.33415s-13.20733-4.91183-13.20733-12.33415 5.23927-12.225 13.20733-12.225c7.7497.00001 13.09821 4.91183 13.09821 12.225zm-18.5558.10916c0 3.71115 2.183 6.22164 5.34846 6.22164s5.34847-2.51049 5.34847-6.22164-2.183-6.22165-5.34847-6.22165-5.34851 2.51048-5.34851 6.22165zm47.26269-3.1654v15.17209h-7.64062v-12.989c0-2.838-1.63728-4.58437-4.25695-4.58437-2.83791 0-4.58438 1.96473-4.91182 4.91182v12.77075h-7.7498v-24.01343h7.74975v3.92947a8.85956 8.85956 0 0 1 8.07725-4.25691c5.23927-.2183 8.73214 3.38371 8.73214 9.0596z" class="cls-2"/><path id="SVGID-3" d="M271.71878 11.595h1.09151v222.12377h-1.09151z" class="cls-2"/><path d="M271.719 11.595h1.092v222.124h-1.092z" class="cls-2"/><g clip-path="url(#clip-path-3)"><path d="M271.71878 11.595h1.09151v222.12377h-1.09151z" class="cls-2"/></g><path d="M267.571 286.87565h-13.97142V262.644H267.571v4.25691h-8.8413v5.34842h8.18638v4.25693h-8.18638v6.22166h8.8413zm17.79172 0l-.65492-2.40135h-.21832a5.04956 5.04956 0 0 1-2.29219 1.96471 8.13656 8.13656 0 0 1-3.38371.65492 6.2873 6.2873 0 0 1-4.91183-1.74643 7.13183 7.13183 0 0 1-1.63727-5.021v-12.11584h5.021v10.806a5.0801 5.0801 0 0 0 .76406 3.05623 2.54938 2.54938 0 0 0 2.29219.98236 3.3377 3.3377 0 0 0 3.05626-1.419 8.58723 8.58723 0 0 0 .98235-4.69351v-8.73214h5.021v18.55579h-4.03863zm19.53815-18.88326a8.82226 8.82226 0 0 1 1.74643.10916l-.32744 4.69353a5.68917 5.68917 0 0 0-1.52812-.2183 5.92073 5.92073 0 0 0-3.82031 1.20068 4.609 4.609 0 0 0-1.30983 3.49285v9.387h-5.13014v-18.55574h3.82031l.76407 3.16539h.21832a6.36086 6.36086 0 0 1 2.29219-2.51049 5.61063 5.61063 0 0 1 3.27455-.76406zm21.9395 9.60536a9.81358 9.81358 0 0 1-2.40135 7.09486 8.56678 8.56678 0 0 1-6.65826 2.51048 9.36846 9.36846 0 0 1-4.69351-1.20068 7.93977 7.93977 0 0 1-3.16539-3.38371 10.7827 10.7827 0 0 1-1.09152-5.13014 9.81361 9.81361 0 0 1 2.40135-7.09486 8.80189 8.80189 0 0 1 6.65826-2.5105 9.36836 9.36836 0 0 1 4.69351 1.20068 7.93968 7.93968 0 0 1 3.1654 3.38371 12.6529 12.6529 0 0 1 1.09151 5.13013zm-12.87989 0a8.09329 8.09329 0 0 0 .8732 4.14775 3.77 3.77 0 0 0 5.89419 0 7.33715 7.33715 0 0 0 .8732-4.14775 8.3823 8.3823 0 0 0-.8732-4.14777 3.77 3.77 0 0 0-5.89419 0 8.38241 8.38241 0 0 0-.87319 4.14777zm27.17878 9.7145a5.98373 5.98373 0 0 1-5.13015-2.40135h-.21831a18.25694 18.25694 0 0 1 .21831 2.72879v7.53146h-5.021V268.429h4.14775l.76407 2.40133h.21832a5.81263 5.81263 0 0 1 5.23927-2.72879 6.07013 6.07013 0 0 1 5.13015 2.51049 12.17584 12.17584 0 0 1 1.85559 7.09486 14.398 14.398 0 0 1-.8732 5.13015 7.28885 7.28885 0 0 1-2.51048 3.38371 7.44245 7.44245 0 0 1-3.82031 1.09152zm-1.419-15.17209a3.242 3.242 0 0 0-2.7288 1.20068 6.79044 6.79044 0 0 0-.8732 3.82031v.54576a8.269 8.269 0 0 0 .8732 4.25691 3.11881 3.11881 0 0 0 2.838 1.30983c2.29219 0 3.38371-1.85559 3.38371-5.56674a8.38241 8.38241 0 0 0-.8732-4.14777 2.84366 2.84366 0 0 0-2.61964-1.419zm21.17543 15.17209a9.59078 9.59078 0 0 1-6.98571-2.51048 9.41648 9.41648 0 0 1-2.51047-6.9857 10.56837 10.56837 0 0 1 2.29219-7.204 8.086 8.086 0 0 1 6.44-2.5105 7.98417 7.98417 0 0 1 6.1125 2.2922 8.80948 8.80948 0 0 1 2.183 6.22164v2.40135h-12.00666a4.98472 4.98472 0 0 0 1.30984 3.38371 4.72775 4.72775 0 0 0 3.38371 1.20068 14.81955 14.81955 0 0 0 3.16539-.32744 21.87763 21.87763 0 0 0 3.16539-1.09152v3.92947a12.46856 12.46856 0 0 1-2.83795.98236 35.80979 35.80979 0 0 1-3.71115.21831zm-.76408-15.71785a3.13179 3.13179 0 0 0-2.51047.98236 4.54927 4.54927 0 0 0-1.09152 2.9471h7.09486a4.36852 4.36852 0 0 0-.98236-2.9471 3.53511 3.53511 0 0 0-2.51047-.98236zm35.92409 15.10913h-16.83108v-3.541l6.04385-6.10994q2.68457-2.75011 3.508-3.81179a8.36512 8.36512 0 0 0 1.18532-1.96878 4.99731 4.99731 0 0 0 .36239-1.87711 2.7384 2.7384 0 0 0-.79839-2.15745 3.09834 3.09834 0 0 0-2.13293-.70778 6.14306 6.14306 0 0 0-2.71707.64169 14.06261 14.06261 0 0 0-2.75011 1.82808l-2.76717-3.27673a18.02172 18.02172 0 0 1 2.94838-2.14147 10.87219 10.87219 0 0 1 2.55184-.9636 13.09924 13.09924 0 0 1 3.09654-.33684 9.16976 9.16976 0 0 1 3.98553.8229 6.3578 6.3578 0 0 1 2.68406 2.30562 6.12857 6.12857 0 0 1 .95508 3.39285 8.32131 8.32131 0 0 1-.58413 3.12106 11.98739 11.98739 0 0 1-1.81209 2.98888 44.18964 44.18964 0 0 1-4.3224 4.36387l-3.09654 2.91534v.23024h10.49092zm19.11971-12.03868q0 6.30769-2.06685 9.3376a7.1722 7.1722 0 0 1-6.3647 3.03046 7.08778 7.08778 0 0 1-6.28262-3.12852q-2.11695-3.12906-2.11695-9.23953 0-6.37321 2.05939-9.39515a8.00485 8.00485 0 0 1 12.63879.13964q2.13294 3.16265 2.13294 9.2555zm-11.77539 0a18.72653 18.72653 0 0 0 .76641 6.34869 2.65219 2.65219 0 0 0 2.57743 1.91868 2.67929 2.67929 0 0 0 2.5689-1.9432 25.70769 25.70769 0 0 0-.00852-12.68889 2.66681 2.66681 0 0 0-5.12928 0 18.66475 18.66475 0 0 0-.77496 6.36472zm31.15941 12.03868h-16.83111v-3.541l6.04385-6.10994q2.68456-2.75011 3.508-3.81179a8.36512 8.36512 0 0 0 1.18532-1.96878 4.99731 4.99731 0 0 0 .36239-1.87711 2.7384 2.7384 0 0 0-.79839-2.15745 3.09836 3.09836 0 0 0-2.13293-.70778 6.14306 6.14306 0 0 0-2.71707.64169 14.06261 14.06261 0 0 0-2.75011 1.82808l-2.76717-3.27673a18.02207 18.02207 0 0 1 2.94837-2.14147 10.87243 10.87243 0 0 1 2.55185-.9636 13.09924 13.09924 0 0 1 3.09654-.33684 9.16976 9.16976 0 0 1 3.98553.8229 6.3578 6.3578 0 0 1 2.68406 2.30562 6.12857 6.12857 0 0 1 .95508 3.39285 8.32131 8.32131 0 0 1-.58413 3.12106 11.98739 11.98739 0 0 1-1.81209 2.98888 44.18964 44.18964 0 0 1-4.3224 4.36387l-3.09654 2.91534v.23024h10.49092zm19.11964-12.03868q0 6.30769-2.06685 9.3376a7.17218 7.17218 0 0 1-6.36469 3.03046 7.08777 7.08777 0 0 1-6.28262-3.12852q-2.11695-3.12906-2.11695-9.23953 0-6.37321 2.05939-9.39515a8.00485 8.00485 0 0 1 12.63879.13964q2.13293 3.16265 2.13293 9.2555zm-11.77538 0a18.72628 18.72628 0 0 0 .76641 6.34869 2.65219 2.65219 0 0 0 2.57743 1.91868 2.67931 2.67931 0 0 0 2.5689-1.9432 25.70758 25.70758 0 0 0-.00853-12.68889 2.66681 2.66681 0 0 0-5.12928 0 18.665 18.665 0 0 0-.7749 6.36472z" class="cls-2"/><path d="M446.18924 429.74756c15.16674-13.14917 30.20117-26.34839 42.24536-46.09009-18.59229 8.53516-37.27173 29.10523-42.24536 46.09009zm92.3479-45.86402c14.86035-14.958 29.12939-30.35083 36.72119-50.65014a157.84861 157.84861 0 0 0-36.72119 50.65014z" class="cls-1"/><path d="M535.27737 395.439c21.74219-15.41577 36.74317-36.40429 48.07739-60.10986 2.50025-5.22925 2.4419-11.55151-3.86547-14.968-5.8064-3.145-10.27515.34961-13.84156 4.4646-5.76538 6.6521-11.0896 13.68482-16.67822 20.49268-16.72534 20.37451-29.886 42.48511-33.74048 69.12573-.30395 2.09937-.65625 4.91382-2.89355 4.59815-9.95362-1.40406-16.572 7.79858-28.31885 8.56323 4.94922-11.31152 8.68237-21.43848 13.70264-30.88135 5.28808-9.94653-2.05-13.54809-7.42945-18.96216-5.36841-5.40332-10.37817-5.40771-16.19653-1.38672-9.45142 6.532-17.74121 14.10816-23.75171 24.10791-3.96631 6.59888-8.4751 16.2732-15.5708 15.87256-9.78369-.55224-15.29663 5.48511-22.80664 8.22-2.73511.9961-5.21362 4.41773-9.1228 1.32666.87011-2.18261 1.44018-4.59961 2.69213-6.58667 5.84351-9.27441 12.00611-18.34912 17.78321-27.66333 2.80908-4.52929 2.96875-8.90844-1.53662-13.07129-5.30518-4.90209-8.10035-.40478-11.03955 2.55982-10.30835 10.39868-20.36133 21.05054-30.60254 31.5166-5.38843 5.50659-10.42945 11.55542-21.20386 16.33423 4.396-7.729 6.60693-12.47339 9.58935-16.66943 5.16724-7.27 11.01221-14.05835 16.17676-21.33008 2.74268-3.86182 3.97241-8.6626-1.08008-11.64112-4.3164-2.54467-7.80761.0979-10.15039 3.91211-3.18383 5.1836-6.6372 10.27344-9.16259 15.77637-6.88819 15.00952-19.03638 23.99463-33.65723 30.1438-7.17334 3.01685-11.7041 1.78882-11.11694-7.68921a88.02175 88.02175 0 0 1 5.1228-23.49512c5.07812-14.56543 11.6709-29.00341 23.0227-39.48 6.21094-5.73193 16.44019-.887 24.79688-1.71142 2.99683-.2959 8.42456 2.70556 8.22607-3.313-.17285-5.24-5.34936-3.66846-8.74975-3.77783-5.11792-.1648-10.24488-.043-17.85352-.043 6.19165-8.58057 10.50733-15.33838 15.624-21.42237 4.614-5.48632 4.87329-10.62011-.7483-14.573-5.85669-4.11792-8.49585 1.06469-11.04809 5.43774-1.84082 3.15381-4.95337 5.83447-5.92383 9.18286-6.03442 20.82056-20.8999 24.43189-39.63672 21.15552-.41772-.07324-1.00171.80615-1.52612 1.25684 1.969 6.27978 6.94848 5.94653 11.89673 6.092 3.44482.10132 8.56054-2.52637 9.9414 1.21631 1.39893 3.791-2.30322 7.47607-4.70849 11.24169-8.46338 13.24976-16.26782 27.08057-19.21973 42.895-1.957 10.48462 3.42651 18.334 10.7439 24.38648 6.2063 5.13354 13.91186 4.71582 20.3833-.28272 6.11523-4.72338 10.63159-7.03906 16.0061 1.479 3.00293 4.75952 8.11548 1.376 11.67871-1.55 8.08472-6.63794 16.064-13.40454 24.918-20.81519 1.02734 11.47705 2.52271 22.11206 15.03809 23.03394 10.56079.77808 17.36621-9.10571 26.40185-13.07373 8.90283 17.91015 13.65332 18.647 27.46631 4.62158 3.64942-3.70532 7.12354-7.5835 11.10791-11.84131 5.38989 22.95728 15.76074 26.52613 33.49317 12.55664a14.414 14.414 0 0 0 2.78906-2.35962c5.66455-7.58667 9.38891-4.14795 12.99365 2.02466 3.13135 5.36206 6.64868 10.55737 14.10254 9.62622 13.595-1.698 23.28638-9.23266 33.36841-21.562-6.072.97363-9.27515.99365-12.09058 2.04834-4.90259 1.83643-9.40234 4.83887-14.37305 6.3772-5.5017 1.70263-11.95239 5.53271-16.4082-1.66968-3.14648-5.08546 4.00025-26.23683 8.90918-29.71726zm39.981-62.20556c-7.5918 20.29931-21.86084 35.69214-36.72119 50.65014a157.84861 157.84861 0 0 1 36.72115-50.65018zm-129.06913 96.51412c4.97363-16.98486 23.65307-37.55493 42.24536-46.09009-12.04419 19.7417-27.0786 32.94092-42.24536 46.09009zm-322.57154-4.31397c-4.438 3.58326-4.34424 9.3042-.94824 14.22364 3.43677 4.978 8.47974 6.04492 14.05371 4.83715 5.32324-1.15332 9.57593-4.46362 13.63086-7.83105a349.56787 349.56787 0 0 0 77.10059-90.59233 59.88421 59.88421 0 0 0 6.24023-15.759c1.58667-6.20825-1.291-11.29541-6.885-14.16992a9.06 9.06 0 0 0-7.01636.06006c-3.34423 1.55395-.88574 4.16113.08179 6.102 3.064 6.14673 1.30884 11.67163-1.34839 17.44873-4.80688 10.45117-11.73266 19.49634-18.439 28.66382-18.74756 25.62866-40.14917 48.6875-68.5271 69.99145 3.59155-12.90649 5.77246-22.71435 9.05078-32.14038a389.10979 389.10979 0 0 1 32.927-70.55713c3.0083-5.07861 6.76465-10.61181-.74365-14.3479-6.79395-3.38086-10.37988 1.719-12.93848 7.31494a59.447 59.447 0 0 1-2.52929 5.53956" class="cls-2"/><path d="M313.73977 372.38379c-4.93652-7.58936-11.491-1.53906-16.76074 1.88159-3.69873 2.40088-5.335 3.228-7.6001-2.17993-2.71-6.47046-8.56225-8.01709-13.05761-1.25977-6.05713 9.105-12.39038 18.30274-16.56885 28.311-5.30127 12.69775-13.35816 21.81909-25.83618 27.09936-5.102 2.15894-11.96241 7.41065-15.5127 3.9712-4.90405-4.75074 1.22925-11.2146 3.946-16.19629 5.03882-9.23975 11.22363-17.84742 16.70556-26.85547 2.9502-4.84741 2.23731-9.677-2.53247-12.83057-5.88916-3.89331-7.6604 1.37012-9.74194 5.25269-6.32007 11.78686-12.54712 23.624-18.90234 35.39209-4.57422 8.4707-2.3606 15.56958 4.04687 21.98657 5.85278 5.86157 11.9082 4.37793 19.02734 2.06323 4.09375-1.33081 8.26758-7.94653 13.96289-1.73389 4.46094 4.866 7.41822 1.36695 8.01709-3.207 1.18287-9.03613 6.99024-14.60107 13.01319-20.48535 10.874-10.62427 19.48193-23.68994 33.55981-31.11279 2.04541 4.5686-3.65649 6.33935-2.84961 10.833 4.75513 1.8706 7.771-.77344 10.16675-3.29151 4.66656-4.90501 11.37527-10.78395 6.91704-17.63816zm-66.74951-12.98853c5.20557-4.21655 11.69092-8.43969 13.49463-15.59472 1.16821-4.63379-3.51562-8.87647-8.21753-8.53858-9.269.66626-10.43725 9.10181-12.1521 15.9751-.97705 3.9165 1.92456 6.73218 6.875 8.1582zm75.53906 125.97566c-4.70759 1.4128-9.71689.03095-14.49812 1.97332-2.966 1.20493-6.56576.81256-9.86845 1.23519-6.3297.81-12.62746 1.65471-18.71934 3.82369-2.38986.85092-5.2833.192-7.4874 2.02372l-1.95419.13487c-3.82048.78762-7.65747 1.50406-11.45551 2.388a20.54358 20.54358 0 0 1-7.539.38244c-4.38048-.6213-8.48908-2.95784-9.11384-8.04153a21.33262 21.33262 0 0 1 .96168-4.50271c.96185-2.15736 2.47689-3.83085 5.27418-3.09018a38.00017 38.00017 0 0 0 24.428-1.49256c1.8802-.74824 4.10847-.62348 6.177-.897 8.66463-1.14563 17.24255-2.84662 25.87156-4.14314 3.10346-.46629 6.08745-2.18588 9.37664-1.43077a1.36537 1.36537 0 0 0 1.79444-.01239l.25144.01961 1.64466-.59808c4.13444-.31545 8.24494-1.21464 12.4212-.50874-.17359.27531-.32779.77671-.52354.79346-9.09229.77773-18.165 2.17052-27.11876 3.55264-7.512 1.15955-15.61258 1.11739-22.25635 4.99559 4.19419.99739 8.38908-1.79305 12.95756-1.28724a20.09273 20.09273 0 0 0 9.045-1.53552 7.07741 7.07741 0 0 1 2.57862-.50828 57.27689 57.27689 0 0 0 13.10917-.60163c3.17941-.617 6.6955.18043 9.74055-.728 3.85318-1.14957 7.89094-.32031 11.56358-1.65 3.71963-1.34673 7.55824-1.093 11.33843-1.4584 5.07729-.49071 10.40843.2355 15.24341-1.0344 7.95739-2.08994 15.956.09992 23.92527-1.43808 5.11409-.987 10.63671.16915 15.97746.32241 7.3818.21189 14.77569.19774 22.14382.63029a100.05358 100.05358 0 0 1 18.62229 3.26355c-.06041-.86916-.12126-1.46874-.81068-1.73629-4.218-1.63684-8.76739-1.84855-13.11327-3.1319-5.79382-1.711-11.99373-1.56735-18.08594-1.72059-5.88838-.14811-11.75482-1.02542-17.644-1.33026-4.77546-.2472-9.50106.87713-14.34639.67316-1.91618-.08068-4.19764.77254-6.40588.8348-3.50027.09871-7.08273-.52552-10.42218-.24452-4.73084.398-9.34808 2.01814-14.25832 2.04915-5.98433.03774-11.8818 1.622-17.90378 1.44235-1.07771-.03216-2.22787 1.52776-3.23836-.11614.50318-1.19467 1.42121-1.27048 2.641-1.42415 5.91528-.74515 11.87348-1.464 17.77493-1.90272 6.028-.44815 12.08806-.88911 18.12894-1.33217a287.45242 287.45242 0 0 1 30.44714-.90384c7.0921.23033 14.24586.13463 21.34173.52153 9.05149.49353 17.84143 2.78981 26.6674 4.79538 3.80826.86538 7.47036 2.337 9.43559 5.351 3.1971 4.90342 7.71032 9.52294 6.27476 16.42267-.44463 2.13681-2.38735 2.94532-3.03985 4.76171a2.2288 2.2288 0 0 1-1.82373-.01734c-1.05568-.7625-.67-1.86157-.31915-2.93386 1.32067-4.0367.634-7.07219-2.50613-8.6264-2.049-1.01414-4.02576-2.58205-6.14771-2.973-4.30868-.79388-8.38611-2.57486-12.889-2.617-5.62351-.05261-10.91627-2.50481-16.5616-2.6934-11.247-.37574-22.544-1.36563-33.72538.07559-9.32764 1.20229-18.76854-.09735-27.96109 1.57128-8.33163 1.51234-16.81317 1.48869-25.1418 3.23463-3.24872.6809-6.87503.6379-10.27871 1.3902zm59.02589-10.06485c-2.31031-.45332-4.62893-1.06126-6.96553.30754 2.49117 1.50753 4.73279.68297 6.96553-.30754zm-38.13434 3.01985c-3.07912-1.82-4.669-.02074-7.386 1.15167zm77.95954-2.461c-1.36509-.85373-2.69222-2.072-4.49594-.80763 1.68202-.44383 2.82653 1.20052 4.49594.80771z" class="cls-2"/></svg>